{
    "asset" : {
        "generator" : "Khronos glTF Blender I/O v1.3.48",
        "version" : "2.0"
    },
    "scene" : 0,
    "scenes" : [
        {
            "name" : "Scene",
            "nodes" : [
                0,
                1,
                2
            ]
        }
    ],
    "nodes" : [
        {
            "name" : "Light",
            "rotation" : [
                0.16907575726509094,
                0.7558803558349609,
                -0.27217137813568115,
                0.570947527885437
            ],
            "translation" : [
                4.076245307922363,
                -2.241596221923828,
                4.331225395202637
            ]
        },
        {
            "name" : "Camera",
            "rotation" : [
                0.483536034822464,
                0.33687159419059753,
                -0.20870360732078552,
                0.7804827094078064
            ],
            "translation" : [
                7.358891487121582,
                4.958309173583984,
                6.925790786743164
            ]
        },
        {
            "mesh" : 0,
            "name" : "3d",
            "rotation" : [
                -0.013033284805715084,
                0.992040753364563,
                0.12456101179122925,
                -0.013033349998295307
            ],
            "translation" : [
                0,
                -7.916827201843262,
                -3.0573530197143555
            ]
        }
    ],
    "materials" : [
        {
            "doubleSided" : true,
            "emissiveFactor" : [
                0,
                0,
                0
            ],
            "name" : "3d",
            "pbrMetallicRoughness" : {
                "baseColorTexture" : {
                    "index" : 0,
                    "texCoord" : 0
                },
                "metallicFactor" : 0,
                "roughnessFactor" : 1
            }
        }
    ],
    "meshes" : [
        {
            "name" : "3d",
            "primitives" : [
                {
                    "attributes" : {
                        "POSITION" : 0,
                        "NORMAL" : 1,
                        "TEXCOORD_0" : 2
                    },
                    "indices" : 3,
                    "material" : 0
                }
            ]
        }
    ],
    "textures" : [
        {
            "source" : 0
        }
    ],
    "images" : [
        {
            "bufferView" : 4,
            "mimeType" : "image/jpeg",
            "name" : "3d"
        }
    ],
    "accessors" : [
        {
            "bufferView" : 0,
            "componentType" : 5126,
            "count" : 1386,
            "max" : [
                5.458786964416504,
                12.250295639038086,
                3.2669260501861572
            ],
            "min" : [
                -6.247384071350098,
                6.043220043182373,
                -5.033623218536377
            ],
            "type" : "VEC3"
        },
        {
            "bufferView" : 1,
            "componentType" : 5126,
            "count" : 1386,
            "type" : "VEC3"
        },
        {
            "bufferView" : 2,
            "componentType" : 5126,
            "count" : 1386,
            "type" : "VEC2"
        },
        {
            "bufferView" : 3,
            "componentType" : 5123,
            "count" : 6048,
            "type" : "SCALAR"
        }
    ],
    "bufferViews" : [
        {
            "buffer" : 0,
            "byteLength" : 16632,
            "byteOffset" : 0
        },
        {
            "buffer" : 0,
            "byteLength" : 16632,
            "byteOffset" : 16632
        },
        {
            "buffer" : 0,
            "byteLength" : 11088,
            "byteOffset" : 33264
        },
        {
            "buffer" : 0,
            "byteLength" : 12096,
            "byteOffset" : 44352
        },
        {
            "buffer" : 0,
            "byteLength" : 400347,
            "byteOffset" : 56448
        }
    ],
    "buffers" : [
        {
            "byteLength" : 456796,
            "uri" : "data:application/octet-stream;base64,"
        }
    ]
}
